<svg width="1080" height="193" viewBox="0 0 1080 193" fill="none" xmlns="http://www.w3.org/2000/svg">
<path d="M401.449 125.505C390.675 125.505 384.576 119.402 384.576 108.825V66.1085H414.459V42.1061H384.17V13.6285H378.478L334.974 59.5994V66.1085H354.896V112.893C354.896 137.099 369.736 151.948 393.927 151.948H415.069V125.505H401.449ZM286.388 84.4155C275.004 82.3814 265.653 80.5507 265.653 73.2279C265.653 66.9222 271.142 62.854 280.29 62.854C290.658 62.854 296.756 67.1256 296.959 75.8723H325.216C325.013 53.9039 307.53 39.0549 281.103 39.0549C254.676 39.0549 236.99 53.4971 236.99 74.245C236.99 100.078 259.351 104.757 276.834 107.808C288.421 109.638 297.976 111.876 297.976 119.402C297.976 126.725 290.454 130.59 282.323 130.59C271.752 130.59 264.23 125.708 264.027 115.944H235.16C235.16 139.336 253.659 155.203 281.103 155.203C308.953 155.203 327.249 140.557 327.249 118.182C327.249 91.3315 304.278 87.6701 286.388 84.4155Z" fill="white"/>
<path d="M522.208 42.1061L519.159 52.48C509.604 44.1402 497.203 39.0549 482.973 39.0549C450.041 39.0549 425.443 63.871 425.443 97.027C425.443 130.183 450.041 155.203 482.973 155.203C497 155.203 509.197 150.321 518.549 141.981L521.191 151.948H544.366V42.1061H522.208ZM485.413 127.132C468.133 127.132 455.53 114.114 455.53 97.027C455.53 79.7371 468.133 66.9222 485.413 66.9222C502.692 66.9222 515.296 79.7371 515.296 97.027C515.296 114.317 502.692 127.132 485.413 127.132Z" fill="white"/>
<path d="M569.051 27.4605H598.528V0H569.051V27.4605ZM569.051 151.948H598.731V42.1061H569.051V151.948Z" fill="white"/>
<path d="M679.26 41.4958C665.03 41.4958 655.272 45.9709 647.344 55.7346L642.058 42.1061H623.153V151.948H652.832V94.9929C652.832 77.0927 659.338 69.5665 676.007 69.5665H689.018V41.4958H679.26Z" fill="white"/>
<path d="M761.637 39.0549C748.017 39.0549 735.82 43.9367 726.468 52.2766L721.386 42.1061H701.871V191.613H731.551V146.049C739.885 151.948 750.253 155.406 761.637 155.406C794.773 155.406 819.167 130.386 819.167 97.027C819.167 63.871 794.773 39.0549 761.637 39.0549ZM759.198 127.132C741.918 127.132 729.314 114.317 729.314 97.027C729.314 79.9405 741.918 66.9222 759.198 66.9222C776.477 66.9222 789.081 79.9405 789.081 97.027C789.081 114.317 776.477 127.132 759.198 127.132Z" fill="white"/>
<path d="M925.82 42.1061L922.771 52.48C913.216 44.1402 900.816 39.0549 886.586 39.0549C853.653 39.0549 829.055 63.871 829.055 97.027C829.055 130.183 853.653 155.203 886.586 155.203C900.612 155.203 912.81 150.321 922.161 141.981L924.804 151.948H947.978V42.1061H925.82ZM889.025 127.132C871.746 127.132 859.142 114.114 859.142 97.027C859.142 79.7371 871.746 66.9222 889.025 66.9222C906.304 66.9222 918.908 79.7371 918.908 97.027C918.908 114.317 906.304 127.132 889.025 127.132Z" fill="white"/>
<path d="M1048.49 42.1061L1021.05 109.842L991.772 42.1061H959.45L1006 143.608L1005.6 144.422C998.887 161.101 995.228 164.966 980.795 164.966H970.63V191.613H982.828C1007.43 191.613 1019.01 180.425 1032.23 150.524L1080 42.1061H1048.49Z" fill="white"/>
<path fill-rule="evenodd" clip-rule="evenodd" d="M0 138.068L27.4115 110.657L54.823 110.657L54.823 83.2449L82.2344 55.8333L109.646 55.8333L109.646 28.4217L137.057 1.01004H191.881V165.48L164.469 192.891H0V138.068ZM27.4124 124.138V165.48H181.026L161.29 185.216H7.67525V141.247L26.3371 122.585L27.4124 124.138ZM137.058 11.8636L117.321 31.6009L117.321 55.8333H137.058V11.8636ZM82.2354 66.6868L62.4982 86.4241L62.4982 110.657H82.2354V66.6868Z" fill="white"/>
</svg>
